<svg data-v-0dd9719b="" version="1.0" xmlns="http://www.w3.org/2000/svg" xmlns:xlink="http://www.w3.org/1999/xlink" width="100%" height="100%" viewBox="0 0 340.000000 250.000000" preserveAspectRatio="xMidYMid meet" color-interpolation-filters="sRGB" style="margin: auto;"> <rect data-v-0dd9719b="" x="0" y="0" width="100%" height="100%" fill="#fff" fill-opacity="1" class="background"></rect> <rect data-v-0dd9719b="" x="0" y="0" width="100%" height="100%" fill="url(#watermark)" fill-opacity="1" class="watermarklayer"></rect> <g data-v-0dd9719b="" fill="#333" class="icon-text-wrapper icon-svg-group iconsvg" transform="translate(49.540000915527344,94.87951850891113)"><g class="iconsvg-imagesvg" transform="translate(0,0)"><g><rect fill="#333" fill-opacity="0" stroke-width="2" x="0" y="0" width="60" height="60.24096385542169" class="image-rect"></rect> <svg x="0" y="0" width="60" height="60.24096385542169" filtersec="colorsb2737881274" class="image-svg-svg primary" style="overflow: visible;"><svg xmlns="http://www.w3.org/2000/svg" viewBox="0 0 99.60000610351562 100"><path d="M0 58.52l30.54 1.74V39.74L0 41.48zM63.74 37.85l-28.28 1.61v21.08l28.28 1.61z" fill="#00b0d8"></path><path d="M63.74 92.8V66.38l-28.28-2.17v22.91z" fill="#02035e"></path><path d="M68.66 33.24l30.94-2.38V0L68.66 6.21z" fill="#64daee"></path><path d="M30.54 63.83L0 61.48V80l30.54 6.13zM68.66 66.76v27L99.6 100V69.14z" fill="#02035e"></path><path d="M35.46 12.88v22.91l28.28-2.17V7.2zM30.54 36.17v-22.3L0 20v18.52z" fill="#64daee"></path><path d="M99.6 35.8l-30.94 1.77v24.86L99.6 64.2z" fill="#00b0d8"></path></svg></svg> <!----></g></g> <g transform="translate(67,2.034231185913086)"><g data-gra="path-name" fill-rule="" class="tp-name iconsvg-namesvg" transform="translate(0,0)"><g transform="scale(1)"><g><path d="M21.82-26.41L21.82-26.41Q26.05-27.18 28.42-27.97 30.78-28.75 32.27-28.75 33.75-28.75 35.26-27.68 36.77-26.59 36.77-25.83L36.77-25.83Q36.77-24.61 33.7-24.61L33.7-24.61 32.22-24.66Q30.42-24.66 26.64-24.32 22.86-23.98 20.2-23.54L20.2-23.54Q17.23-18.36 14.63-14.67L14.63-14.67Q19.13-15.25 21.51-15.48L21.51-15.48Q21.33-19.04 20.56-20.14 19.8-21.24 19.8-21.85 19.8-22.45 20.86-22.45 21.91-22.45 24.16-21.69 26.41-20.93 26.41-19.8L26.41-19.8Q26.41-19.39 26.08-18.77 25.74-18.13 25.74-16.06L25.74-16.06Q26.95-16.29 28.55-16.74 30.15-17.19 31.27-17.19 32.4-17.19 33.8-16.11 35.19-15.03 35.19-14.49 35.19-13.95 34.74-13.72 34.29-13.5 33.84-13.46 33.39-13.41 31.12-13.41 28.84-13.41 25.74-13.14L25.74-13.14Q25.79-8.78 26.05-5.15 26.32-1.53 26.32-1.3L26.32-1.3Q26.32 1.21 24.68 3.26 23.04 5.31 21.94 5.31 20.84 5.31 20.34 4.09L20.34 4.09Q19.62 2.16 16.96-0.22L16.96-0.22Q15.71-1.35 15.71-1.71 15.71-2.07 16.31-2.07 16.92-2.07 18.25-1.75 19.57-1.44 20.25-1.44 20.93-1.44 21.2-1.8 21.46-2.16 21.62-4.03 21.78-5.89 21.78-7.94 21.78-9.99 21.64-12.73L21.64-12.73Q17.37-12.2 15.46-11.68 13.54-11.16 12.33-10.37 11.12-9.58 10.55-9.58 9.99-9.58 9.18-11.41 8.37-13.23 8.37-13.7 8.37-14.17 8.66-14.4 8.96-14.63 9.76-14.85L9.76-14.85Q12.01-15.43 15.79-22.68L15.79-22.68Q13-22.14 11.83-22.14 10.66-22.14 9.31-23.11 7.96-24.07 7.96-24.43 7.96-24.79 10.13-24.79 12.29-24.79 17.28-25.65L17.28-25.65Q19.26-29.83 19.26-32.09L19.26-32.09Q19.26-33.12 18.9-33.84 18.54-34.56 18.54-35.01L18.54-35.01Q18.54-35.91 19.8-35.91 21.06-35.91 23.36-34.6 25.65-33.3 25.65-32.17L25.65-32.17Q25.65-31.5 24.7-30.76 23.76-30.02 21.82-26.41ZM14.04-10.57L14.04-10.57Q14.54-10.57 14.8-9.67 15.07-8.78 15.07-7.25 15.07-5.71 14.13-3.8 13.18-1.89 11.59-0.56 9.99 0.77 9 0.77L9 0.77Q7.47 0.77 7.47-2.65L7.47-2.65Q7.47-3.73 7.83-4.34 8.19-4.95 9.04-5.4L9.04-5.4Q11.07-6.52 12.38-8.87L12.38-8.87Q13.32-10.57 14.04-10.57ZM39.2-2.92L39.2-2.92Q39.2-1.71 38.77-0.58 38.34 0.54 37.64 0.54 36.95 0.54 36.27 0.04 35.59-0.45 34.2-2.07L34.2-2.07 30.78-6.03Q28.71-8.41 28.37-8.87 28.04-9.31 28.04-9.7 28.04-10.08 29-10.08 29.97-10.08 32.92-9.16 35.87-8.23 37.53-6.66 39.2-5.08 39.2-2.92ZM77.09-30.29L77.09-30.29Q78.84-30.6 80.06-30.91 81.27-31.23 82.46-31.23 83.66-31.23 84.62-29.95 85.59-28.66 85.59-28.13L85.59-28.13Q85.59-27.27 83.79-27.27L83.79-27.27Q80.82-27.4 79.16-27.4 77.49-27.4 75.73-27.36L75.73-27.36Q74.7-25.29 73.53-24.19 72.36-23.09 71.82-23.09 71.28-23.09 71.28-23.65 71.28-24.21 71.64-25.18 72-26.14 72.18-27.18L72.18-27.18Q68.04-26.82 66.02-26.59L66.02-26.59 66.02-24.16Q66.06-23.22 65.68-22.79 65.3-22.36 64.73-22.36 64.17-22.36 63.41-23.74 62.64-25.11 62.46-26.1L62.46-26.1Q61.2-25.92 59.33-25.49 57.47-25.06 56.59-25.06 55.71-25.06 54.61-26.21 53.5-27.36 53.5-27.81 53.5-28.26 54.49-28.26L54.49-28.26 56.16-28.17Q59.09-28.17 61.97-28.53L61.97-28.53Q61.34-30.82 60.3-31.81 59.27-32.8 59.27-33.44 59.27-34.06 60.39-34.06 61.52-34.06 63.59-33.48 65.66-32.89 66.13-32.58 66.6-32.27 66.6-31.88 66.6-31.5 66.38-30.85 66.15-30.2 66.06-28.98L66.06-28.98 72.77-29.7Q72.99-30.82 72.99-31.61 72.99-32.4 72.63-33.07L72.63-33.07Q72.05-34.38 72.05-35.1 72.05-35.82 72.94-35.82 73.84-35.82 76.32-34.63 78.8-33.44 78.8-32.53L78.8-32.53Q78.8-32.04 78.19-31.52 77.58-31 77.09-30.29ZM71.23-21.87L71.23-21.87Q77.63-22.9 78.66-23.31 79.69-23.71 80.28-23.71L80.28-23.71Q81.59-23.71 84.24-21.53 86.89-19.35 86.89-18.18L86.89-18.18Q86.89-17.1 84.71-17.05 82.53-17.01 79.69-15.62L79.69-15.62Q78.84-15.16 78.21-15.16 77.58-15.16 77.58-15.79 77.58-16.43 78.48-17.59 79.38-18.77 79.38-19.26 79.38-19.75 79-19.89 78.62-20.02 76.97-20.02 75.33-20.02 71.71-19.66 68.09-19.3 65.03-18.77 61.97-18.22 60.93-18.22 59.89-18.22 59.4-18.27L59.4-18.27Q58.81-15.57 57.58-13.63 56.34-11.7 55.37-11.7 54.41-11.7 53.69-13.25 52.97-14.8 52.97-15.41 52.97-16.02 53.73-16.72 54.49-17.41 55.15-18.5 55.8-19.57 56.07-20.52L56.07-20.52Q56.56-22.59 57.38-22.59 58.19-22.59 59.35-20.56L59.35-20.56Q62.77-20.7 68.44-21.46L68.44-21.46Q67.86-22.41 67.14-23.24 66.42-24.07 66.42-24.64 66.42-25.2 67.5-25.2L67.5-25.2Q68.17-25.2 69.25-24.93 70.33-24.66 70.81-24.19 71.28-23.71 71.28-23.04 71.28-22.36 71.23-21.87ZM71.19-17.68L71.19-17.68Q71.86-17.68 73.24-17.23 74.61-16.79 74.61-16.27 74.61-15.75 74-15.39 73.39-15.03 70.13-14.31 66.87-13.59 64.71-13.59L64.71-13.59Q63.63-13.59 62.55-14.06 61.47-14.54 61.47-15.03 61.47-15.52 62.77-15.62L62.77-15.62Q65.52-15.79 68.89-17.1L68.89-17.1Q70.42-17.68 71.19-17.68ZM71.5-9.95L71.5-9.95Q73.03-9.18 73.03-8.5L73.03-8.5Q73.03-8.1 72.41-7.15 71.78-6.21 71.78-4.18 71.78-2.16 72.16-1.57 72.54-0.99 73.55-0.7 74.56-0.4 76.07-0.4 77.58-0.4 79.47-0.67 81.36-0.94 81.81-1.13 82.26-1.3 82.66-1.84 83.07-2.38 83.43-3.49 83.79-4.59 84.19-6.43L84.19-6.43Q84.78-9.18 85.48-9.18 86.17-9.18 86.31-6.08L86.31-6.08Q86.4-3.65 86.63-2.88 86.85-2.11 87.61-1.4 88.38-0.67 88.38 0L88.38 0Q88.38 1.53 85.34 2.65 82.31 3.78 78.03 3.78L78.03 3.78Q75.19 3.78 72.67 3.15 70.16 2.52 69.21 1.17 68.27-0.18 68.27-3.49 68.27-6.79 68.33-7.22 68.4-7.65 68.4-7.88L68.4-7.88Q68.4-8.64 67.86-9.4L67.86-9.4Q67.05-9.31 65.66-9.09L65.66-9.09Q67.14-7.96 67.14-7.45 67.14-6.93 66.26-6.25 65.38-5.58 64.35-4.14L64.35-4.14Q61.16 0.09 56.84 1.82 52.52 3.55 50.98 3.55L50.98 3.55Q50.45 3.55 50.45 3.28L50.45 3.28Q50.45 2.7 52.83 1.3L52.83 1.3Q56.97-1.13 59.63-3.98 62.28-6.84 62.28-8.55L62.28-8.55Q60.7-8.32 59.78-8.32 58.86-8.32 57.73-8.93 56.61-9.54 56.61-9.95L56.61-9.95Q56.61-10.57 58.55-10.57L58.55-10.57Q59.85-10.57 63.61-11.21 67.36-11.83 70.54-12.76 73.71-13.68 74.97-13.68 76.23-13.68 77.33-13.07 78.44-12.46 78.44-11.95 78.44-11.43 77.63-11.07 76.81-10.71 75.04-10.48 73.26-10.26 71.5-9.95ZM101.88-33.12L101.88-33.12Q103.81-33.12 105.86-32.53 107.91-31.95 107.91-29.79L107.91-29.79Q107.91-26.91 106.34-26.91L106.34-26.91Q104.98-26.91 102.85-29.38 100.71-31.86 100.71-32.63L100.71-32.63Q100.71-33.12 101.88-33.12ZM129.74-28.98L129.74-28.98Q129.74-28.53 129.13-27.81 128.52-27.09 128.32-25.88 128.12-24.66 128.12-22.16 128.12-19.66 128.41-11.63 128.7-3.6 128.7-2.18 128.7-0.77 128.3 0.32 127.89 1.4 126.61 2.88 125.32 4.37 124.29 4.37 123.25 4.37 122.63 2.7L122.63 2.7Q121.86 0.77 120.22-0.72 118.58-2.21 118.58-2.54 118.58-2.88 119.2-2.88 119.83-2.88 121.16-2.61 122.49-2.34 123.23-2.34 123.97-2.34 124.02-3.1L124.02-3.1 124.11-8.19Q124.16-12.55 124.16-15.73 124.16-18.9 123.95-22.99 123.75-27.09 123.57-28.01 123.39-28.93 122.76-28.93L122.76-28.93Q122.44-28.93 120.62-28.78 118.8-28.62 117.9-28.44 117-28.26 115.47-27.83 113.94-27.4 113.15-27.4 112.36-27.4 111.11-28.37 109.84-29.34 109.84-29.7 109.84-30.06 110.27-30.13 110.7-30.2 112.79-30.2 114.88-30.2 117.92-30.82 120.96-31.45 122.63-32.4L122.63-32.4Q123.53-32.94 124.31-32.94 125.1-32.94 127.42-31.36 129.74-29.79 129.74-28.98ZM114.88-13.63L114.88-13.63Q115.83-12.82 115.83-12.22 115.83-11.61 115.49-11.16 115.16-10.71 115.16-7.6L115.16-7.6Q115.16-6.39 116.28-6.39L116.28-6.39Q116.86-6.39 117.94-6.68 119.03-6.97 119.5-7.56 119.97-8.14 120.26-10.04 120.56-11.92 121.03-11.92 121.5-11.92 121.66-10.17 121.81-8.41 121.97-7.79 122.13-7.15 122.6-6.61 123.07-6.08 123.07-5.54 123.07-5 122.22-4.37 121.36-3.73 119.54-3.44 117.72-3.15 116.21-3.15 114.7-3.15 113.33-3.85 111.96-4.54 111.96-6.71L111.96-6.71 112.05-10.35Q112.05-12.29 111.83-13.54L111.83-13.54 109.94-13.5Q111.87-12.15 111.87-11.21L111.87-11.21Q111.87-10.66 111.15-10.13 110.43-9.58 109.94-8.73L109.94-8.73Q107.28-4.41 101.52-3.01L101.52-3.01Q101.52-0.72 100.94 0.79 100.35 2.29 99.38 2.29 98.41 2.29 97.63 0.94 96.84-0.4 96.84-1.4 96.84-2.38 97.42-3.65L97.42-3.65Q98.41-5.8 98.41-14.67L98.41-14.67Q98.41-20.61 98.17-23.2 97.92-25.79 97.22-26.64 96.53-27.49 96.53-27.97 96.53-28.44 97.29-28.44 98.06-28.44 99.83-27.9 101.61-27.36 102.26-27.02 102.91-26.68 102.91-26.35 102.91-26.01 102.6-25.36 102.28-24.7 102.13-23.54 101.97-22.36 101.77-16.9 101.56-11.43 101.56-4.41L101.56-4.41Q106.11-8.28 107.5-12.38L107.5-12.38Q107.19-12.38 106.61-12.98 106.02-13.59 105.8-14.4L105.8-14.4Q104.94-17.68 103.95-18.77L103.95-18.77Q103.55-19.21 103.55-19.57L103.55-19.57Q103.55-20.16 104.65-20.16 105.75-20.16 107.37-19.75L107.37-19.75Q110.11-19.93 111.96-20.2L111.96-20.2Q114.66-24.3 114.66-25.92L114.66-25.92Q114.66-26.14 114.59-26.41 114.53-26.68 114.53-27.11 114.53-27.54 115.18-27.54 115.83-27.54 117.72-26.53 119.61-25.52 119.61-24.79L119.61-24.79Q119.61-24.3 118.53-23.89 117.45-23.49 116.69-22.61 115.92-21.73 114.48-20.65L114.48-20.65Q115.2-20.88 115.65-21.15 116.1-21.42 116.78-21.42 117.45-21.42 119.16-20.43 120.87-19.44 120.87-18.97 120.87-18.5 120.06-17.91L120.06-17.91Q118.35-16.7 117.94-15.84L117.94-15.84Q118.84-15.3 118.84-14.8 118.84-14.31 118.22-14.02 117.58-13.72 114.88-13.63ZM108.86-15.21L108.86-15.21Q110.92-15.25 112.66-15.59 114.39-15.93 114.68-16.11 114.97-16.29 115.13-16.99 115.29-17.68 115.29-18.04 115.29-18.4 115.13-18.5 114.97-18.59 114.39-18.59L114.39-18.59Q111.15-18.59 108.36-17.91L108.36-17.91Q108.67-16.29 108.86-15.21ZM106.2-25.61L106.2-25.61Q108.72-25.61 109.69-25.06 110.66-24.52 110.66-22.81L110.66-22.81Q110.66-22.05 110.34-21.62 110.03-21.2 109.31-21.2 108.59-21.2 106.99-23.02 105.39-24.84 105.39-25.22 105.39-25.61 106.2-25.61ZM164.03-29.29L164.03-29.29Q166.77-29.88 168.37-30.58 169.97-31.27 170.91-31.27 171.85-31.27 173.05-30.64 174.24-30.02 174.24-29.47 174.24-28.93 173.18-28.46 172.13-27.99 168.91-27.54 165.69-27.09 164.66-27.09 163.62-27.09 162.63-27.36L162.63-27.36Q160.83-25.24 158.74-24.16 156.65-23.09 155.79-23.09L155.79-23.09Q155.38-23.09 155.38-23.31L155.38-23.31Q155.38-23.8 156.94-25.24 158.49-26.68 159.79-29.34 161.1-31.99 161.1-33.44L161.1-33.44Q161.1-33.7 160.92-34.13 160.74-34.56 160.74-35.01L160.74-35.01Q160.74-35.87 161.73-35.87 162.72-35.87 164.84-34.7 166.95-33.52 166.95-32.63L166.95-32.63Q166.95-31.99 166.03-31.52 165.1-31.05 164.03-29.29ZM155.12-32.35L155.12-32.35Q155.12-31.86 154.64-31.12 154.17-30.38 154.17-27.09L154.17-27.09 154.31-23.13Q154.31-21.55 153.81-20.07 153.31-18.59 152.66-18.59 152.01-18.59 151.2-19.69 150.39-20.79 150.39-21.78 150.39-22.77 150.71-23.83 151.02-24.88 151.02-26.68L151.02-26.68Q151.02-29.2 150.77-30.6 150.53-31.99 149.99-32.58L149.99-32.58Q149.13-33.57 149.13-34.13 149.13-34.7 150.12-34.7 151.11-34.7 153.11-34.02 155.12-33.34 155.12-32.35ZM149.26-29.47L149.26-29.47Q149.26-29.02 148.93-28.37 148.59-27.72 148.59-24.7L148.59-24.7 148.63-22.27Q148.63-20.75 148.23-19.39 147.82-18.04 146.97-18.04 146.12-18.04 145.31-19.3 144.5-20.56 144.5-21.35 144.5-22.14 144.88-23.04 145.26-23.94 145.26-25.74L145.26-25.74Q145.26-28.71 144.41-29.81 143.55-30.91 143.55-31.41 143.55-31.9 144.31-31.9 145.08-31.9 147.17-31.21 149.26-30.51 149.26-29.47ZM162.9-25.43L162.9-25.43Q165.65-25.43 167.53-24.46 169.43-23.49 169.43-21.15L169.43-21.15Q169.43-19.3 167.99-19.3 166.54-19.3 164.23-21.87 161.91-24.43 161.91-25.02L161.91-25.02Q161.91-25.43 162.9-25.43ZM160.56-19.39L160.56-19.39Q163.4-17.37 168.07-15.23 172.75-13.09 179.28-11.79L179.28-11.79Q181.39-11.38 181.39-10.89L181.39-10.89Q181.39-10.57 180.68-10.24 179.95-9.9 177.03-9.02 174.1-8.14 172.94-8.14 171.76-8.14 170.98-8.59 170.19-9.04 166.12-12.2 162.04-15.34 158.67-18.27L158.67-18.27Q157.81-17.68 156.69-16.56L156.69-16.56Q151.88-11.83 146.36-9.45 140.85-7.06 139-7.06L139-7.06Q138.24-7.06 138.24-7.42L138.24-7.42Q138.24-8.1 140.83-9.34 143.41-10.57 146.12-12.33 148.81-14.08 150.93-15.97L150.93-15.97Q152.55-17.41 154.13-19.21L154.13-19.21Q155.07-20.25 155.29-20.79L155.29-20.79Q155.43-21.02 155.43-21.91 155.43-22.81 156.33-22.81 157.23-22.81 159.12-21.73 161.01-20.65 161.01-20.02L161.01-20.02Q161.01-19.71 160.56-19.39ZM159.3-6.84L159.3-1.03Q164.84-1.53 166.12-1.75 167.4-1.98 168.12-1.98L168.12-1.98Q170.28-1.98 171.59-0.72 172.89 0.54 172.89 1.37 172.89 2.21 171.54 2.21L171.54 2.21Q171.05 2.21 170.46 2.07L170.46 2.07Q166.91 1.35 161.5 1.35L161.5 1.35Q159.07 1.35 155.05 1.8 151.02 2.25 148.32 2.92L148.32 2.92Q147.15 3.19 146.34 3.19 145.53 3.19 144.43 2.18 143.32 1.17 143.32 0.77 143.32 0.36 143.98 0.27 144.63 0.18 145.28 0.2 145.94 0.22 146.61 0.22L146.61 0.22Q150.39 0.22 155.38-0.54L155.38-0.54 155.47-6.39Q154.35-6.3 153.09-6.3 151.83-6.3 150.82-6.82 149.81-7.33 149.81-7.67 149.81-8.01 151.16-8.1 152.5-8.19 155.47-8.64L155.47-8.64Q155.47-10.3 155.38-11.25L155.38-11.25Q153.81-11.25 152.93-11.7 152.06-12.15 152.06-12.46 152.06-12.78 153.18-12.96L153.18-12.96Q156.28-13.41 159.93-14.67L159.93-14.67Q160.43-14.85 161.06-14.85 161.69-14.85 162.63-14.31 163.57-13.77 163.57-13.32 163.57-12.87 162.81-12.51 162.04-12.15 161.55-12.06L161.55-12.06 159.34-11.61 159.34-9.4Q160.65-9.63 161.69-9.99 162.72-10.35 163.51-10.35 164.29-10.35 165.26-9.95 166.23-9.54 166.23-8.98 166.23-8.41 165.65-8.08 165.06-7.74 159.3-6.84L159.3-6.84ZM167-4.86L167-4.86Q167-4.27 165.65-3.96 164.29-3.65 161.1-2.25L161.1-2.25Q160.56-2.02 160.16-2.02 159.75-2.02 159.75-2.38 159.75-2.75 160.29-3.24L160.29-3.24Q162.09-4.77 162.09-5.98 162.09-7.2 163.08-7.2 164.07-7.2 165.53-6.41 167-5.63 167-4.86ZM150.07-6.08L150.07-6.08Q150.75-6.08 152.21-5.35 153.68-4.63 153.68-2.97L153.68-2.97Q153.68-2.11 153.29-1.57 152.91-1.03 152.32-1.03L152.32-1.03Q151.38-1.03 150.41-2.7 149.44-4.37 149.44-5.44L149.44-5.44Q149.44-6.08 150.07-6.08Z" transform="translate(-7.470000267028809, 35.90999984741211)"></path></g> <!----> <!----> <!----> <!----> <!----> <!----> <!----></g></g> <g data-gra="path-slogan" fill-rule="" class="tp-slogan iconsvg-slogansvg" fill="#333" transform="translate(25.740001678466797,47.220001220703125)"><!----> <!----> <g transform="scale(1, 1)"><g transform="scale(1)"><path d="M4.41 0L0.94 0L0.94-8.58L4.45-8.58Q7.92-8.39 8.06-4.41L8.06-4.41Q7.88-0.09 4.41 0L4.41 0ZM4.27-7.64L2.11-7.64L2.11-0.98L4.36-0.98Q6.80-1.13 6.89-4.31L6.89-4.31Q6.84-7.55 4.27-7.64L4.27-7.64ZM16.31-4.27L16.31-4.27Q16.13-7.64 13.31-7.83L13.31-7.83Q10.45-7.69 10.31-4.27L10.31-4.27Q10.45-0.94 13.31-0.80L13.31-0.80Q16.13-0.98 16.31-4.27ZM17.48-4.27L17.48-4.27Q17.20 0 13.31 0.14L13.31 0.14Q9.38 0 9.09-4.27L9.09-4.27Q9.33-8.72 13.31-8.81L13.31-8.81Q17.20-8.67 17.48-4.27ZM20.25-8.58L24.56-1.64L24.56-8.58L25.69-8.58L25.69 0L24.38 0L20.02-6.94L19.97-6.94L19.97 0L18.84 0L18.84-8.58L20.25-8.58ZM33.89-3.61L31.27-3.61L31.27-4.59L35.02-4.59L35.02 0L34.27 0L33.98-1.08Q33 0.09 31.17 0.14L31.17 0.14Q29.44 0.14 28.50-0.75L28.50-0.75Q27.09-2.06 27.14-4.36L27.14-4.36Q27.47-8.63 31.22-8.81L31.22-8.81Q34.41-8.63 34.88-6L34.88-6L33.75-6Q33.28-7.78 31.17-7.83L31.17-7.83Q28.50-7.64 28.36-4.31L28.36-4.31Q28.36-0.75 31.22-0.75L31.22-0.75Q32.25-0.75 33-1.31L33-1.31Q33.94-2.06 33.89-3.61L33.89-3.61ZM43.22-3.61L40.59-3.61L40.59-4.59L44.34-4.59L44.34 0L43.59 0L43.31-1.08Q42.33 0.09 40.50 0.14L40.50 0.14Q38.77 0.14 37.83-0.75L37.83-0.75Q36.42-2.06 36.47-4.36L36.47-4.36Q36.80-8.63 40.55-8.81L40.55-8.81Q43.73-8.63 44.20-6L44.20-6L43.08-6Q42.61-7.78 40.50-7.83L40.50-7.83Q37.83-7.64 37.69-4.31L37.69-4.31Q37.69-0.75 40.55-0.75L40.55-0.75Q41.58-0.75 42.33-1.31L42.33-1.31Q43.27-2.06 43.22-3.61L43.22-3.61ZM51.80-3.19L51.80-8.58L52.97-8.58L52.97-3.05Q52.83 0.05 49.45 0.14L49.45 0.14Q46.31 0.05 46.17-2.86L46.17-2.86L46.17-8.58L47.34-8.58L47.34-3.19Q47.39-0.84 49.50-0.80L49.50-0.80Q51.80-0.84 51.80-3.19L51.80-3.19ZM60.42 0L59.58-2.48L56.11-2.48L55.22 0L54.05 0L57.28-8.58L58.59-8.58L61.69 0L60.42 0ZM57.84-7.31L56.48-3.52L59.16-3.52L57.89-7.31L57.84-7.31ZM64.13-8.58L68.44-1.64L68.44-8.58L69.56-8.58L69.56 0L68.25 0L63.89-6.94L63.84-6.94L63.84 0L62.72 0L62.72-8.58L64.13-8.58ZM81.61-8.58L78.38-3.47L78.38 0L77.20 0L77.20-3.47L73.97-8.58L75.33-8.58L77.77-4.45L80.25-8.58L81.61-8.58ZM88.31-3.19L88.31-8.58L89.48-8.58L89.48-3.05Q89.34 0.05 85.97 0.14L85.97 0.14Q82.83 0.05 82.69-2.86L82.69-2.86L82.69-8.58L83.86-8.58L83.86-3.19Q83.91-0.84 86.02-0.80L86.02-0.80Q88.31-0.84 88.31-3.19L88.31-3.19ZM92.58-1.03L97.73-1.03L97.73 0L91.41 0L91.41-8.58L97.64-8.58L97.64-7.59L92.58-7.59L92.58-4.92L97.27-4.92L97.27-3.89L92.58-3.89L92.58-1.03ZM98.53-1.92L98.53-2.77L99.61-2.77L99.61-2.16Q99.61-0.75 100.92-0.75L100.92-0.75Q102.28-0.75 102.28-2.25L102.28-2.25L102.28-8.58L103.45-8.58L103.45-2.30Q103.41 0.09 100.97 0.14L100.97 0.14Q98.67 0.09 98.53-1.92L98.53-1.92ZM105.42-8.58L106.59-8.58L106.59 0L105.42 0L105.42-8.58ZM114.23 0L113.39-2.48L109.92-2.48L109.03 0L107.86 0L111.09-8.58L112.41-8.58L115.50 0L114.23 0ZM111.66-7.31L110.30-3.52L112.97-3.52L111.70-7.31L111.66-7.31ZM117.94-8.58L122.25-1.64L122.25-8.58L123.38-8.58L123.38 0L122.06 0L117.70-6.94L117.66-6.94L117.66 0L116.53 0L116.53-8.58L117.94-8.58Z" transform="translate(-0.9375, 8.8125)"></path></g></g></g></g></g><defs v-gra="od"></defs></svg>